# xmcd
#
# Track frame offsets: 
#        150
#        10601
#        24543
#        38309
#        50147
#        63667
#        75934
#        90314
#        105571
#        117608
#        130229
#        140699
#        153528
#        166268
#        180216
#        193871
#        205280
#        218423
#        233462
#        245123
#
# Disc length: 3424 seconds
#
# Revision: 0
# Processed by: cddbd v1.5.2PL0 Copyright (c) Steve Scherf et al.
# Submitted via: ExactAudioCopy v0.95b4
#
DISCID=020d5e14
DTITLE=Ray Charles - The Soul Of A Man
DYEAR=2007
DGENRE=Blues
TTITLE0=Hey Now
TTITLE1=Kissa Me Baby
TTITLE2=Misery in My Heart
TTITLE3=The Sun's Gonna Shine Again
TTITLE4=The Midnight Hour
TTITLE5=It Should Have Been Me
TTITLE6=Losing Hand
TTITLE7=Sinner's Prayer
TTITLE8=Mess Around
TTITLE9=I Wonder Who
TTITLE10=Blackjack
TTITLE11=I Got A Woman
TTITLE12=Greenbacks
TTITLE13=Come Back Baby
TTITLE14=A Fool For You
TTITLE15=This Little Girl Of Mine
TTITLE16=Hard Times
TTITLE17=I'll Drown In My Own Tears
TTITLE18=Hallelujah, I Love Her So
TTITLE19=Lonely Avenue
EXTD=
EXTT0=
EXTT1=
EXTT2=
EXTT3=
EXTT4=
EXTT5=
EXTT6=
EXTT7=
EXTT8=
EXTT9=
EXTT10=
EXTT11=
EXTT12=
EXTT13=
EXTT14=
EXTT15=
EXTT16=
EXTT17=
EXTT18=
EXTT19=
PLAYORDER=
